<svg xmlns="http://www.w3.org/2000/svg" viewBox="0 0 32 32" width="32" height="32">
  <defs>
    <linearGradient id="gamepadGradient" x1="0%" y1="0%" x2="100%" y2="100%">
      <stop offset="0%" style="stop-color:#667eea;stop-opacity:1" />
      <stop offset="100%" style="stop-color:#764ba2;stop-opacity:1" />
    </linearGradient>
    <linearGradient id="buttonGradient" x1="0%" y1="0%" x2="100%" y2="100%">
      <stop offset="0%" style="stop-color:#3498db;stop-opacity:1" />
      <stop offset="100%" style="stop-color:#2980b9;stop-opacity:1" />
    </linearGradient>
  </defs>
  
  <!-- Background circle -->
  <circle cx="16" cy="16" r="15" fill="url(#gamepadGradient)" stroke="#2c3e50" stroke-width="2"/>
  
  <!-- Gamepad body -->
  <path d="M8 12 Q8 10 10 10 L22 10 Q24 10 24 12 L24 18 Q24 20 22 20 L10 20 Q8 20 8 18 Z" fill="#2c3e50"/>
  
  <!-- D-pad -->
  <rect x="10" y="14" width="2" height="4" fill="url(#buttonGradient)" rx="0.5"/>
  <rect x="9" y="15" width="4" height="2" fill="url(#buttonGradient)" rx="0.5"/>
  
  <!-- Action buttons -->
  <circle cx="19" cy="14" r="1.2" fill="url(#buttonGradient)"/>
  <circle cx="21" cy="16" r="1.2" fill="url(#buttonGradient)"/>
  <circle cx="19" cy="18" r="1.2" fill="url(#buttonGradient)"/>
  <circle cx="17" cy="16" r="1.2" fill="url(#buttonGradient)"/>
  
  <!-- Shoulder buttons -->
  <rect x="6" y="8" width="3" height="2" fill="#34495e" rx="1"/>
  <rect x="23" y="8" width="3" height="2" fill="#34495e" rx="1"/>
  
  <!-- Center highlight -->
  <ellipse cx="16" cy="16" rx="2" ry="1" fill="#e74c3c" opacity="0.8"/>
  
  <!-- Gaming elements - small pixels -->
  <rect x="14" y="6" width="1" height="1" fill="#f39c12" opacity="0.7"/>
  <rect x="17" y="6" width="1" height="1" fill="#27ae60" opacity="0.7"/>
  <rect x="20" y="7" width="1" height="1" fill="#e74c3c" opacity="0.7"/>
</svg>